<?xml version="1.0" standalone="no"?>
<!DOCTYPE svg PUBLIC "-//W3C//DTD SVG 20010904//EN"
 "http://www.w3.org/TR/2001/REC-SVG-20010904/DTD/svg10.dtd">
<svg version="1.0" xmlns="http://www.w3.org/2000/svg"
 width="1200.000000pt" height="1200.000000pt" viewBox="0 0 1200.000000 1200.000000"
 preserveAspectRatio="xMidYMid meet">
<metadata>
Created by potrace 1.11, written by Peter Selinger 2001-2013
</metadata>
<g transform="translate(0.000000,1200.000000) scale(0.100000,-0.100000)"
fill="#000000" stroke="none">
<path d="M3405 11084 c-227 -35 -534 -143 -844 -299 -124 -62 -163 -100 -182
-178 -60 -250 240 -761 823 -1404 l120 -133 1342 0 1342 0 60 63 c135 139 346
389 484 572 195 260 346 524 388 681 27 100 29 203 3 259 -35 77 -105 121
-421 257 -144 62 -381 142 -481 162 -238 48 -337 30 -689 -124 -332 -145 -420
-169 -640 -177 -246 -8 -365 21 -740 183 -120 51 -251 103 -292 114 -72 20
-214 33 -273 24z"/>
<path d="M3135 8233 c-389 -362 -890 -874 -1206 -1233 -1060 -1208 -1726
-2410 -1900 -3430 -27 -157 -37 -506 -20 -672 39 -369 178 -709 408 -991 81
-98 246 -252 354 -329 166 -119 403 -231 589 -278 227 -58 -38 -53 3273 -57
l3037 -3 0 1192 c0 1293 -1 1257 55 1367 34 67 123 162 204 216 88 58 180 99
316 139 210 64 394 87 683 87 111 0 202 3 202 7 0 13 -85 232 -136 354 -66
154 -224 473 -319 643 -542 970 -1413 2015 -2534 3043 l-133 122 -1342 0
-1341 -1 -190 -176z m1720 -1164 c544 -47 935 -289 1145 -708 49 -98 108 -285
132 -422 30 -168 33 -499 4 -629 -76 -348 -228 -558 -646 -892 -284 -226 -379
-334 -439 -494 -30 -78 -51 -191 -51 -270 l0 -64 -332 0 -331 0 6 108 c21 350
139 641 365 897 85 97 154 159 382 342 352 282 410 377 410 669 0 466 -167
708 -544 790 -99 22 -361 30 -480 15 -327 -42 -521 -187 -600 -451 -23 -74
-46 -231 -46 -307 l0 -63 -330 0 -330 0 0 33 c0 78 22 270 41 367 56 278 180
522 354 695 290 291 759 430 1290 384z m145 -4319 l0 -330 -330 0 -330 0 0
330 0 330 330 0 330 0 0 -330z"/>
<path d="M10865 5913 c-261 -23 -518 -102 -628 -193 -71 -60 -77 -84 -77 -301
0 -222 9 -256 84 -311 317 -231 1137 -265 1571 -64 77 36 147 92 171 137 11
22 14 75 14 240 l0 213 -26 38 c-75 107 -310 197 -614 234 -103 12 -389 16
-495 7z"/>
<path d="M10161 4743 c-1 -107 3 -193 10 -210 45 -121 283 -226 609 -269 164
-21 547 -15 690 11 201 37 370 100 457 171 71 58 73 67 72 286 -1 109 -4 179
-9 162 -29 -125 -230 -226 -558 -281 -166 -28 -553 -25 -722 5 -305 55 -499
153 -537 274 -9 26 -11 -6 -12 -149z"/>
<path d="M10160 4072 c0 -162 2 -187 20 -221 79 -156 463 -271 903 -271 417 0
791 104 891 248 26 38 26 38 25 233 -1 119 -4 181 -9 160 -13 -53 -84 -117
-185 -166 -412 -201 -1250 -168 -1550 61 -31 24 -55 54 -71 88 l-24 51 0 -183z"/>
<path d="M8630 3905 c-294 -37 -535 -129 -606 -234 -24 -35 -24 -39 -24 -249
0 -165 3 -219 14 -241 104 -201 703 -320 1238 -245 289 40 515 139 567 247 19
39 21 61 21 233 0 162 -3 195 -19 230 -54 118 -301 221 -622 258 -159 19 -421
19 -569 1z"/>
<path d="M11992 3572 c-13 -132 -255 -251 -607 -297 -139 -18 -447 -21 -575
-5 -344 43 -571 142 -631 275 l-18 40 0 -179 c-1 -212 8 -241 89 -301 312
-229 1148 -260 1569 -58 80 38 152 98 170 141 8 18 10 92 8 217 -1 105 -3 180
-5 167z"/>
<path d="M8001 2732 c-1 -219 1 -228 72 -286 87 -71 256 -134 457 -171 141
-26 526 -32 686 -11 295 39 506 122 591 232 l28 37 2 196 c1 153 -1 189 -9
163 -41 -124 -246 -225 -566 -279 -149 -25 -552 -25 -697 0 -327 57 -526 157
-555 281 -5 17 -8 -53 -9 -162z"/>
<path d="M10161 2743 c-1 -107 3 -193 10 -210 45 -121 285 -226 614 -269 173
-23 546 -15 702 15 255 48 434 130 492 225 19 31 21 48 20 227 -1 110 -4 180
-9 163 -29 -124 -228 -224 -555 -281 -158 -27 -569 -24 -730 5 -303 56 -494
154 -532 274 -9 26 -11 -6 -12 -149z"/>
<path d="M8001 2061 c-1 -195 -1 -195 25 -233 100 -144 468 -247 884 -248 450
-1 839 117 911 274 16 35 19 67 18 221 l0 180 -25 -53 c-16 -33 -42 -65 -71
-87 -298 -228 -1137 -260 -1548 -60 -101 49 -172 113 -185 166 -5 21 -8 -41
-9 -160z"/>
<path d="M10160 2072 c0 -162 2 -187 20 -221 79 -156 463 -271 903 -271 417 0
791 104 891 248 26 38 26 38 25 233 -1 119 -4 181 -9 160 -13 -53 -84 -117
-185 -166 -308 -150 -887 -177 -1292 -59 -176 51 -289 122 -329 208 l-24 51 0
-183z"/>
<path d="M8001 1402 c-1 -149 2 -199 13 -221 38 -73 162 -147 330 -195 484
-141 1216 -68 1432 142 59 57 64 79 63 284 0 173 -1 181 -15 143 -43 -118
-223 -212 -508 -266 -159 -31 -512 -38 -694 -15 -329 42 -582 156 -608 274 -3
15 -7 32 -9 37 -2 6 -4 -77 -4 -183z"/>
<path d="M10161 1411 c-1 -167 1 -189 20 -228 80 -165 542 -290 994 -269 402
19 709 117 802 255 22 33 23 42 22 230 0 108 -2 192 -4 186 -2 -5 -6 -22 -9
-37 -13 -60 -112 -138 -236 -186 -86 -34 -242 -71 -374 -88 -172 -23 -537 -15
-692 15 -285 54 -465 148 -508 266 -14 38 -15 29 -15 -144z"/>
</g>
</svg>
